<?xml version="1.0" encoding="utf-8"?>
<!-- Generator: Adobe Illustrator 22.1.0, SVG Export Plug-In . SVG Version: 6.00 Build 0)  -->
<svg version="1.1" id="Слой_1" xmlns="http://www.w3.org/2000/svg" xmlns:xlink="http://www.w3.org/1999/xlink" x="0px" y="0px"
	 viewBox="0 0 612 792" style="enable-background:new 0 0 612 792;" xml:space="preserve">
<path d="M402.5,384.7h-77.9c-7.8,0-14.2-6.3-14.2-14.2v0c0-7.8,6.3-14.2,14.2-14.2h77.9c7.8,0,14.2,6.3,14.2,14.2v0
	C416.7,378.3,410.3,384.7,402.5,384.7z"/>
<path d="M363.6,155.9L363.6,155.9c7.8,0,14.2,6.3,14.2,14.2v196.3c0,7.8-6.3,14.2-14.2,14.2h0c-7.8,0-14.2-6.3-14.2-14.2V170.1
	C349.4,162.2,355.8,155.9,363.6,155.9z"/>
<path d="M312,244L312,244c6.4,4.5,15.3,2.9,19.7-3.5l43.5-62.3c4.5-6.4,2.9-15.3-3.5-19.7l0,0c-6.4-4.5-15.3-2.9-19.7,3.5
	l-43.5,62.3C304,230.7,305.6,239.6,312,244z"/>
</svg>
