<?xml version="1.0" encoding="utf-8"?>
<!-- Generator: Adobe Illustrator 22.1.0, SVG Export Plug-In . SVG Version: 6.00 Build 0)  -->
<svg width="60" height="60" version="1.1" id="Слой_1" focusable="false"
	 xmlns="http://www.w3.org/2000/svg" xmlns:xlink="http://www.w3.org/1999/xlink" x="0px" y="0px" viewBox="0 0 60 60"
	 style="enable-background:new 0 0 60 60;" xml:space="preserve">
<style type="text/css">
	.st0{fill:#EA80FC;}
</style>
<path class="st0" d="M59.6,28.5C54,17.5,42.8,10,30,10S6,17.5,0.4,28.5c-0.5,1-0.5,2.1,0,3C6,42.5,17.2,50,30,50s24-7.5,29.6-18.5
	C60.1,30.6,60.1,29.4,59.6,28.5z M30,45c-8.3,0-15-6.7-15-15s6.7-15,15-15s15,6.7,15,15C45,38.3,38.3,45,30,45C30,45,30,45,30,45z
	 M30,20c-0.9,0-1.8,0.1-2.6,0.4c1.6,2.2,1.2,5.3-1.1,7c-1.8,1.3-4.2,1.3-5.9,0c-1.4,5.3,1.7,10.8,7,12.2c5.3,1.4,10.8-1.7,12.2-7
	s-1.7-10.8-7-12.2C31.8,20.1,30.9,20,30,20z"/>
</svg>
