<?xml version="1.0" encoding="utf-8"?>
<!-- Generator: Adobe Illustrator 22.1.0, SVG Export Plug-In . SVG Version: 6.00 Build 0)  -->
<svg version="1.1" id="Capa_1" xmlns="http://www.w3.org/2000/svg" xmlns:xlink="http://www.w3.org/1999/xlink" x="0px" y="0px"
	 viewBox="0 0 112 112" style="enable-background:new 0 0 112 112;" xml:space="preserve">
<style type="text/css">
	.st0{fill:#207DFF;}
</style>
<path class="st0" d="M64.6,63c-13.5,0-24.5,11-24.5,24.5s11,24.5,24.5,24.5c13.5,0,24.5-11,24.5-24.5S78.1,63,64.6,63z M64.6,106.1
	c-10.6,0-19.2-8.3-19.2-18.6S54,68.9,64.6,68.9c10.6,0,19.2,8.3,19.2,18.6S75.2,106.1,64.6,106.1z"/>
<path class="st0" d="M89.1,70.5H73.4c-2.9,0-5.2-2.4-5.2-5.2v0c0-2.9,2.4-5.2,5.2-5.2h15.8c2.9,0,5.2,2.4,5.2,5.2v0
	C94.4,68.1,92,70.5,89.1,70.5z"/>
<path class="st0" d="M100.9,93.1L100.9,93.1c-2.6,1-5.5-0.3-6.5-2.8l-9.2-23.4c-1-2.6,0.3-5.5,2.8-6.5l0,0c2.6-1,5.5,0.3,6.5,2.8
	l9.2,23.4C104.7,89.2,103.4,92.1,100.9,93.1z"/>
<path class="st0" d="M97.6,28.5C96.2,26,93,25,90.5,26.4L62.4,41.2l-14.3,2.9l-6.5-11.6c-1.2-2.1-3.6-3.1-5.9-2.5l-3.5-2.6
	c0.3-1.6,0-3.5-0.8-5.3c-1.1-2.7-3.3-5.2-6-7.3c-3.7-2.7-8-4-11.5-3.4c-2.1,0.3-3.9,1.3-5,2.9c-3,4.2-0.6,11,5.6,15.5
	c3.7,2.7,8,4,11.5,3.4c1.3-0.2,2.4-0.7,3.4-1.3l2.5,1.8c-0.3,1.3-0.2,2.7,0.5,3.9l8.3,15c1.1,1.9,3.2,3,5.4,2.6c0.1,0,0.2,0,0.2,0
	L56.9,53c0,0,1,6.5,1.8,11.7c2.7,0.5,5.1,1.5,7.3,2.9l9-1.4l-2.7-17c-0.1-0.4-0.2-0.8-0.3-1.1l23.4-12.4
	C98,34.3,98.9,31.1,97.6,28.5z M26.8,27.2c-0.4,0.5-1,0.7-1.6,0.8c-2.1,0.3-5.1-0.6-7.6-2.5c-4.2-3-5.4-6.9-4.5-8.2
	c0.4-0.5,1-0.7,1.6-0.8c2.1-0.3,5.1,0.6,7.6,2.5c2,1.4,3.5,3.3,4.3,5.1C27.2,25.4,27.2,26.6,26.8,27.2z"/>
<path class="st0" d="M30.2,12.1l7.9-4.9c0.9-0.6,1.4-1.9,0.8-2.3l-5.8-4.7c-0.6-0.4-1.7,0.3-2.1,1.3l-3.1,8.8
	C27.3,12.1,28.5,13.1,30.2,12.1z"/>
<circle class="st0" cx="60.9" cy="29.2" r="8.3"/>
</svg>
