<?xml version="1.0" encoding="utf-8"?>
<!-- Generator: Adobe Illustrator 22.1.0, SVG Export Plug-In . SVG Version: 6.00 Build 0)  -->
<svg version="1.1" id="Слой_1" focusable="false"
	 xmlns="http://www.w3.org/2000/svg" xmlns:xlink="http://www.w3.org/1999/xlink" x="0px" y="0px" viewBox="0 0 512 512"
	 style="enable-background:new 0 0 512 512;" xml:space="preserve">
<style type="text/css">
	.st0{fill:#82B1FF;}
</style>
<g>
	<path class="st0" d="M496,0H384.8c-11.2,0-21.7,5.9-27.4,15.5l-69.1,115.2c42,6.6,79.8,25.6,109.6,53.4l111.3-159
		C516.5,14.6,508.9,0,496,0z"/>
	<path class="st0" d="M223.8,130.8L154.6,15.5C148.8,5.9,138.4,0,127.2,0H16C3.1,0-4.5,14.6,2.9,25.2l111.3,159
		C143.9,156.4,181.7,137.3,223.8,130.8z"/>
	<path class="st0" d="M256,160c-97.2,0-176,78.8-176,176s78.8,176,176,176s176-78.8,176-176S353.2,160,256,160z M309,436.2H202.8
		v-28.3h38.9V275.9l-33.9,33.9l-20-20l53.9-53.9v0h28.3v172H309V436.2z"/>
</g>
</svg>
