<?xml version="1.0" encoding="utf-8"?>
<!-- Generator: Adobe Illustrator 22.1.0, SVG Export Plug-In . SVG Version: 6.00 Build 0)  -->
<svg version="1.1" id="Слой_1" fill="#ea80fc" xmlns="http://www.w3.org/2000/svg" xmlns:xlink="http://www.w3.org/1999/xlink" x="0px" y="0px"
	 viewBox="0 0 713 713" style="enable-background:new 0 0 713 713;" xml:space="preserve">
<path d="M707.8,137c-9.5-18.8-27.8-31.5-48.7-34c-23.2-3.5-46.9,0.1-68,10.5l-190.5,89.3l-204.8-80.1c-25.8-9.7-46.2-9.5-60.6,0.9
	c0,0,0,0,0,0c-12,9.9-18.9,24.7-18.6,40.2c0.1,3.9,2.1,7.6,5.4,9.8l137.9,94.8l-79,37.4L48.4,272.2c-5.4-1.3-11.1,1.1-13.8,6
	l-33,59.4c-1.7,3.1-2,6.9-0.7,10.3c1.2,3.4,3.9,6,7.2,7.3l98.1,40.5l-0.3,0.1l114.1,47.1L335.2,389L316,589.6
	c-0.4,3.9,1.2,7.8,4.1,10.5c9.3,7.7,20.9,12.1,32.9,12.5c3.3,0,6.6-0.4,9.8-1.2c17.2-4.5,30.5-19.8,39.6-46l83.4-246.8l165.1-77
	C699.5,218.8,724.6,172.8,707.8,137z"/>
</svg>
