<?xml version="1.0" encoding="utf-8"?>
<!-- Generator: Adobe Illustrator 22.1.0, SVG Export Plug-In . SVG Version: 6.00 Build 0)  -->
<svg version="1.1" xmlns="http://www.w3.org/2000/svg" xmlns:xlink="http://www.w3.org/1999/xlink" x="0px" y="0px"
	 viewBox="0 0 2289 1832" style="enable-background:new 0 0 2289 1832;" xml:space="preserve">
<style type="text/css">
	.st0{fill:#80d8ff;}
	.st1{fill:#80d8ff;}
</style>
<g id="Слой_3">
	<path class="st0" d="M7,1579c1.6-0.9,1.3-2.6,1.7-4c3.7-14.9,12.2-26.4,24.6-35.2c65.3-46.1,130.7-92.2,195.9-138.3
		c71.9-50.9,143.8-101.9,215.6-152.9c7.9-5.6,9.3-5.3,14.8,2.4c61.9,87,123.7,174,185.6,261c8,11.2,7.7,12.6-3.6,20.3
		c-110.3,75.3-220.6,150.7-330.9,226.1c-29,19.8-58,39.7-87,59.5c-6.3,4.3-12.9,7.6-20.6,8.2c-5.3,1.1-10.8-0.5-16.2,0.9
		c-0.3,0-0.7,0-1,0c-1.8-1.1-3.8-0.3-5.7-0.5c-6.4,0.4-11.7-2.2-16.6-5.7c-6.9-5-12.9-11-17.9-18c-32.8-45.5-65.1-91.3-97.3-137.3
		c-9.6-13.8-19.3-27.5-29.1-41.2C13.5,1616,8.2,1607.4,7,1597c0-1,0-2,0-3c0.8-4.3,0.8-8.7,0-13C7,1580.3,7,1579.7,7,1579z"/>
</g>
<g id="Слой_5">
</g>
<g id="Слой_4">
	<path class="st1" d="M2289,511.8c0-11.8,0-23.6,0-35.3c0-3.8,0-7.7,0-11.5c0-10-0.2-20-1.4-29.9c-3.9-34.4-11.2-68-22.2-100.9
		c-13.2-39.4-31.9-76.2-54.5-110.9c-23.7-36.4-53.2-67.7-85.8-96.3c-27.2-23.9-57-43.8-89-60.6c-30.3-15.9-61.7-29.3-94.5-39.2
		c-54.8-16.7-110.8-26.2-168.1-26.6c-4.7,0-9.4,0-14.1,0c-6.9-0.3-13.9,0.6-20.8-0.5c-0.7,0-1.3,0-2,0c-6.3,1.1-12.7,0.2-19.1,0.5
		c-4,0.2-8-0.4-12,0.3c-16.6,1-33.2,2.1-49.7,3.9c-34.6,3.8-68.8,10-102.7,17.9c-81,18.8-158.1,48.1-231.7,86.7
		c-87.2,45.8-167.8,100.8-239,169.1c-29.4,28.2-58.2,56.8-84.3,88c-33.4,39.9-62.9,82.7-89.7,127.3C869.6,558,839.5,626,821.4,699
		c-9.1,36.8-17.7,73.7-29,110c-30,96.4-74.8,185.7-129.8,270.1c-24.9,38.3-52.7,74.5-82.2,109.4c-4.8,5.7-4.8,7.7-0.5,13.7
		c9,12.8,18.1,25.5,27.2,38.3c39.8,56.1,79.5,112.2,119.4,168.3c7.8,11,11.9,12.3,24.6,8.3c1.6-0.5,3.2-1,4.7-1.6
		c49.1-17.4,99-32.4,149.8-43.9c30.7-7,61.6-12.7,92.8-16.6c20.6-2.6,41.3-4.7,62.1-6.1c28.2-1.9,56.5-3.8,84.8-3.8
		c24,0,47.9,2,71.8,3.4c17.3,1,34.5,2.4,51.8,4c25.4,2.4,50.7,4.8,76.2,5c42.2,0.3,84.1-3.7,125.7-10.2c47.4-7.5,94.1-18,139.8-32.7
		c69-22.1,134.7-51.7,197.6-88c91.1-52.6,173.2-116.4,245-193.3c40.9-43.8,78.2-90.5,110.6-140.9c42.8-66.4,76.5-137.1,98.6-213.1
		c14.6-50.3,24.4-101.5,26.3-154.1C2289.4,520.7,2288.7,516.2,2289,511.8z M912.9,1204.4c-50.1,8.3-99.2,21.2-148,35.1
		c-3.6,1-7.4,1.6-11.1,2.4c-0.3-0.3-0.6-0.6-0.8-0.9c5.9-8.4,11.8-16.8,17.7-25.2l73.3-117.7c2.7-5.1,2.7-5.1,6.1-0.2
		c22.5,31.8,44.9,63.6,67.4,95.3C923.9,1202.3,923.9,1202.6,912.9,1204.4z M2058.7,527.4c-2.3,58.7-19,113.8-43.1,167
		c-22.2,48.9-50.2,94.2-83.2,136.5c-18.2,23.4-37.8,45.6-58.4,67c-53.2,55.1-113.5,101-179.4,139.8
		c-72.8,42.9-150.5,73.4-233.5,90.1c-36.9,7.4-74,13.4-107.1,12.3c-44.8-0.1-84.6-2.4-123.7-11.8c-46.6-11.2-89.4-30.3-126.5-60.9
		c-36.5-30.1-60.9-68.3-74.1-113.6c-7.6-26-11.5-52.5-12.1-79.6c-1.3-60.5,12-118.1,34.5-173.8c20.7-51.1,49.4-97.5,81.8-141.9
		c30.6-42,64.4-81.1,102.1-116.8c63.5-60,134.3-109.3,213.5-146.4c61.1-28.6,125-47.9,191.9-57.4c20.3-2.9,40.6-5,61-6
		c32-1.5,63.9-1,95.7,2.4c56.6,6.1,109.7,22.5,156.8,55.5c54.2,37.9,86.6,90,99.2,154.7C2059.6,471.9,2059.8,499.6,2058.7,527.4z"/>
</g>
</svg>
