<?xml version="1.0" encoding="utf-8"?>
<!-- Generator: Adobe Illustrator 22.1.0, SVG Export Plug-In . SVG Version: 6.00 Build 0)  -->
<svg version="1.1" id="Слой_1" xmlns="http://www.w3.org/2000/svg" xmlns:xlink="http://www.w3.org/1999/xlink" x="0px" y="0px"
	 viewBox="0 0 960 560" style="enable-background:new 0 0 960 560;" xml:space="preserve">
<style type="text/css">
	.st0{fill:#80D8FF;}
</style>
<g id="Слой_3">
	<path class="st0" d="M96,484c0.5-0.3,0.4-0.8,0.5-1.2c1.2-4.6,3.8-8.1,7.7-10.8c20.3-14.1,40.7-28.3,60.9-42.4
		c22.4-15.6,44.7-31.2,67.1-46.9c2.5-1.7,2.9-1.6,4.6,0.7c19.3,26.7,38.5,53.3,57.7,80c2.5,3.4,2.4,3.9-1.1,6.2
		c-34.3,23.1-68.6,46.2-103,69.3c-9,6.1-18,12.2-27.1,18.2c-2,1.3-4,2.3-6.4,2.5c-1.6,0.3-3.4-0.2-5,0.3c-0.1,0-0.2,0-0.3,0
		c-0.6-0.3-1.2-0.1-1.8-0.2c-2,0.1-3.6-0.7-5.2-1.7c-2.1-1.5-4-3.4-5.6-5.5c-10.2-13.9-20.3-28-30.3-42.1c-3-4.2-6-8.4-9.1-12.6
		c-1.8-2.5-3.5-5.2-3.8-8.4c0-0.3,0-0.6,0-0.9c0.2-1.3,0.2-2.7,0-4C96,484.4,96,484.2,96,484z"/>
</g>
<g id="Слой_4">
	<path class="st0" d="M806,156.9c0-3.6,0-7.2,0-10.8c0-1.2,0-2.4,0-3.5c0-3.1-0.1-6.1-0.4-9.2c-1.2-10.5-3.5-20.8-6.9-30.9
		c-4.1-12.1-9.9-23.4-17-34c-7.4-11.2-16.6-20.8-26.7-29.5c-8.5-7.3-17.7-13.4-27.7-18.6c-9.4-4.9-19.2-9-29.4-12
		c-17-5.1-34.5-8-52.3-8.2c-1.5,0-2.9,0-4.4,0c-2.1-0.1-4.3,0.2-6.5-0.2c-0.2,0-0.4,0-0.6,0c-2,0.3-4,0.1-5.9,0.2
		c-1.2,0.1-2.5-0.1-3.7,0.1c-5.2,0.3-10.3,0.6-15.5,1.2c-10.8,1.2-21.4,3.1-32,5.5c-25.2,5.8-49.2,14.7-72.1,26.6
		c-27.1,14-52.2,30.9-74.4,51.8c-9.1,8.6-18.1,17.4-26.2,27c-10.4,12.2-19.6,25.4-27.9,39c-12.1,19.7-21.4,40.5-27.1,62.9
		c-2.8,11.3-5.5,22.6-9,33.7c-9.3,29.5-23.3,56.9-40.4,82.8c-7.7,11.7-16.4,22.8-25.6,33.5c-1.5,1.7-1.5,2.4-0.2,4.2
		c2.8,3.9,5.6,7.8,8.5,11.7c12.4,17.2,24.7,34.4,37.1,51.6c2.4,3.4,3.7,3.8,7.7,2.5c0.5-0.2,1-0.3,1.5-0.5
		c15.3-5.3,30.8-9.9,46.6-13.5c9.6-2.1,19.2-3.9,28.9-5.1c6.4-0.8,12.8-1.4,19.3-1.9c8.8-0.6,17.6-1.2,26.4-1.2
		c7.5,0,14.9,0.6,22.3,1c5.4,0.3,10.7,0.7,16.1,1.2c7.9,0.7,15.8,1.5,23.7,1.5c13.1,0.1,26.2-1.1,39.1-3.1
		c14.7-2.3,29.3-5.5,43.5-10c21.5-6.8,41.9-15.8,61.5-27c28.3-16.1,53.9-35.7,76.2-59.3c12.7-13.4,24.3-27.7,34.4-43.2
		c13.3-20.4,23.8-42,30.7-65.3c4.5-15.4,7.6-31.1,8.2-47.2C806.1,159.6,805.9,158.2,806,156.9z M377.9,369.2
		c-15.6,2.5-30.9,6.5-46,10.8c-1.1,0.3-2.3,0.5-3.5,0.7c-0.1-0.1-0.2-0.2-0.2-0.3c1.8-2.6,3.7-5.1,5.5-7.7l22.8-36.1
		c0.8-1.6,0.8-1.6,1.9-0.1c7,9.7,14,19.5,21,29.2C381.3,368.5,381.3,368.6,377.9,369.2z M734.3,161.6c-0.7,18-5.9,34.9-13.4,51.2
		c-6.9,15-15.6,28.9-25.9,41.8c-5.7,7.2-11.8,14-18.2,20.5c-16.6,16.9-35.3,31-55.8,42.9c-22.7,13.2-46.8,22.5-72.6,27.6
		c-11.5,2.3-23,4.1-33.3,3.8c-13.9,0-26.3-0.7-38.5-3.6c-14.5-3.4-27.8-9.3-39.4-18.7c-11.4-9.2-18.9-20.9-23.1-34.8
		c-2.4-8-3.6-16.1-3.8-24.4c-0.4-18.5,3.7-36.2,10.7-53.3c6.4-15.7,15.4-29.9,25.5-43.5c9.5-12.9,20-24.9,31.8-35.8
		c19.8-18.4,41.8-33.5,66.4-44.9c19-8.8,38.9-14.7,59.7-17.6c6.3-0.9,12.6-1.5,19-1.8c10-0.5,19.9-0.3,29.8,0.7
		c17.6,1.9,34.1,6.9,48.8,17c16.9,11.6,26.9,27.6,30.9,47.4C734.6,144.6,734.7,153.1,734.3,161.6z"/>
</g>
<rect x="251.3" y="367.2" transform="matrix(0.81 -0.5865 0.5865 0.81 -186.6042 245.3247)" class="st0" width="67.8" height="86.8"/>
<rect x="363.5" y="151.5" transform="matrix(0.8191 -0.5736 0.5736 0.8191 -0.8649 345.6577)" class="st0" width="368.3" height="45.5"/>
<rect x="411.2" y="223" transform="matrix(0.8191 -0.5736 0.5736 0.8191 -32.8562 387.2581)" class="st0" width="372.9" height="45.5"/>
<rect x="612.6" y="16.2" transform="matrix(0.8021 -0.5972 0.5972 0.8021 29.0959 411.5586)" class="st0" width="45.9" height="291.4"/>
<rect x="503.5" y="82.4" transform="matrix(0.8021 -0.5972 0.5972 0.8021 -40.7591 362.3987)" class="st0" width="45.9" height="320.6"/>
</svg>
